<svg data-name="Layer 1" viewBox="0 0 64 64" xmlns="http://www.w3.org/2000/svg"><path d="M9.5 40.5h26.67a5.5 5.5 0 0 1 5.5 5.5h0a5.5 5.5 0 0 1-5.5 5.5M41.5 16.5A3.5 3.5 0 0 1 45 20h0a3.5 3.5 0 0 1-3.5 3.5h-32" stroke="#f2f2f2" fill="none" stroke-linecap="round" stroke-miterlimit="10" stroke-width="3px" class="stroke-a5a9aa"></path><path d="M40.5 32.5H53a2.67 2.67 0 0 1 2.67 2.67h0A2.67 2.67 0 0 1 53 37.83" stroke="#d1d1d1" fill="none" stroke-linecap="round" stroke-miterlimit="10" stroke-width="3px" class="stroke-b9c1c6"></path><path d="M26.5 32.5h8" stroke="#f2f2f2" fill="none" stroke-linecap="round" stroke-miterlimit="10" stroke-width="3px" class="stroke-a5a9aa"></path><path d="M9.5 32.5h11" stroke="#d1d1d1" fill="none" stroke-linecap="round" stroke-miterlimit="10" stroke-width="3px" class="stroke-b9c1c6"></path></svg>