<?xml version="1.0" encoding="UTF-8"?>
<!DOCTYPE svg PUBLIC "-//W3C//DTD SVG 1.1//EN" "http://www.w3.org/Graphics/SVG/1.1/DTD/svg11.dtd">
<svg xmlns="http://www.w3.org/2000/svg" version="1.1" width="512px" height="512px" style="shape-rendering:geometricPrecision; text-rendering:geometricPrecision; image-rendering:optimizeQuality; fill-rule:evenodd; clip-rule:evenodd" xmlns:xlink="http://www.w3.org/1999/xlink">
<g><path style="opacity:0.964" fill="#ffffff" d="M 249.5,-0.5 C 253.5,-0.5 257.5,-0.5 261.5,-0.5C 264.022,1.36056 266.522,3.36056 269,5.5C 279.547,23.3737 290.88,40.707 303,57.5C 330.667,93.5 358.333,129.5 386,165.5C 405.917,191.985 422.25,220.652 435,251.5C 458.904,320.857 448.57,384.524 404,442.5C 369.921,481.625 327.087,504.625 275.5,511.5C 262.167,511.5 248.833,511.5 235.5,511.5C 152.96,499.128 98.1262,453.461 71,374.5C 56.7636,323.057 62.0969,273.724 87,226.5C 98.4147,205.327 111.081,184.993 125,165.5C 152.667,129.5 180.333,93.5 208,57.5C 219.413,41.6791 230.08,25.3457 240,8.5C 242.406,4.59151 245.572,1.59151 249.5,-0.5 Z M 254.5,47.5 C 287.314,91.8413 320.814,135.841 355,179.5C 371.316,201.512 385.65,224.845 398,249.5C 427.719,318.022 417.219,379.522 366.5,434C 315.095,479.57 257.095,490.237 192.5,466C 137.761,439.901 105.927,396.735 97,336.5C 94.2334,306 99.5667,277 113,249.5C 125.35,224.845 139.684,201.512 156,179.5C 179.758,148.319 203.758,117.319 228,86.5C 237.348,73.7887 246.181,60.7887 254.5,47.5 Z M 202.5,224.5 C 219.765,224.257 225.598,232.257 220,248.5C 213.749,255.011 206.582,256.177 198.5,252C 191.989,245.749 190.823,238.582 195,230.5C 197.114,227.879 199.614,225.879 202.5,224.5 Z M 298.5,384.5 C 315.765,384.257 321.598,392.257 316,408.5C 309.749,415.011 302.582,416.177 294.5,412C 287.989,405.749 286.823,398.582 291,390.5C 293.114,387.879 295.614,385.879 298.5,384.5 Z"/></g>
<g><path style="opacity:0.965" fill="#fff" d="M 197.5,191.5 C 227.16,188.564 246.326,201.231 255,229.5C 258.421,259.18 245.921,278.346 217.5,287C 187.82,290.421 168.654,277.921 160,249.5C 156.699,219.735 169.199,200.402 197.5,191.5 Z M 202.5,224.5 C 199.614,225.879 197.114,227.879 195,230.5C 190.823,238.582 191.989,245.749 198.5,252C 206.582,256.177 213.749,255.011 220,248.5C 225.598,232.257 219.765,224.257 202.5,224.5 Z"/></g>
<g><path style="opacity:0.959" fill="#fff" d="M 329.5,223.5 C 348.778,222.61 355.278,231.276 349,249.5C 294.5,304 240,358.5 185.5,413C 167.133,419.294 158.633,412.794 160,393.5C 160.667,392.167 161.333,390.833 162,389.5C 217.423,333.577 273.256,278.243 329.5,223.5 Z"/></g>
<g><path style="opacity:0.965" fill="#fff" d="M 293.5,351.5 C 323.16,348.564 342.326,361.231 351,389.5C 354.421,419.18 341.921,438.346 313.5,447C 283.82,450.421 264.654,437.921 256,409.5C 252.699,379.735 265.199,360.402 293.5,351.5 Z M 298.5,384.5 C 295.614,385.879 293.114,387.879 291,390.5C 286.823,398.582 287.989,405.749 294.5,412C 302.582,416.177 309.749,415.011 316,408.5C 321.598,392.257 315.765,384.257 298.5,384.5 Z"/></g>
</svg>
