<svg data-name="Layer 1" viewBox="0 0 512 512" xmlns="http://www.w3.org/2000/svg">
<path d="M122.67 218.19a5.51 5.51 0 0 0 4-1.71c.33-.35 33.79-35.15 71.1-37.66 26.4-1.83 39.6 5.71 53.52 13.66 13.74 7.83 29.3 16.7 58 16.7 58.5 0 83.87-48.36 84.93-50.42a5.5 5.5 0 0 0-9.8-5c-.23.45-23.29 44.42-75.13 44.42-25.79 0-38.79-7.41-52.56-15.26-14.72-8.39-29.89-17-59.72-15.07-41.63 2.8-76.86 39.5-78.34 41.06a5.5 5.5 0 0 0 4 9.29Z" fill="#ffffff" class="fill-000000"></path>
<path d="M119.51 272.1a5.51 5.51 0 0 0 7.67-1.34c.32-.46 32.63-45.78 71.35-45.78h.69c24.09.34 38.74 7.92 54.25 16 16.08 8.32 32.7 16.93 59.62 16.93 53.45 0 79.92-45.47 81-47.4a5.5 5.5 0 0 0-9.56-5.45c-.24.42-24.53 41.84-71.46 41.84-24.24 0-39-7.62-54.56-15.69-16-8.27-32.46-16.81-59.16-17.18-44.55-.69-79.74 48.37-81.21 50.46a5.51 5.51 0 0 0 1.37 7.61Z" fill="#ffffff" class="fill-000000"></path>
<path d="M392 262.83a5.52 5.52 0 0 0-7.5 2.05c-.69 1.19-17.57 29.39-70.19 29.39-28.28 0-41.85-8.37-55-16.45-12.55-7.73-25.53-15.72-49.33-15.72-48.78 0-89.84 47.88-91.57 49.92a5.51 5.51 0 0 0 8.41 7.11c.38-.46 39.43-46 83.16-46 20.69 0 31.28 6.53 43.56 14.09 13.76 8.48 29.35 18.08 60.75 18.08 59.43 0 79-33.55 79.78-35a5.5 5.5 0 0 0-2.07-7.47Z" fill="#ffffff" class="fill-000000"></path>
</svg>